<?xml version="1.0" standalone="no"?>
<!DOCTYPE svg PUBLIC "-//W3C//DTD SVG 20010904//EN"
 "http://www.w3.org/TR/2001/REC-SVG-20010904/DTD/svg10.dtd">
<svg version="1.0" xmlns="http://www.w3.org/2000/svg"
 width="700.000000pt" height="700.000000pt" viewBox="0 0 700.000000 700.000000"
 preserveAspectRatio="xMidYMid meet">
<metadata>
Created by potrace 1.11, written by Peter Selinger 2001-2013
</metadata>
<g transform="translate(0.000000,700.000000) scale(0.100000,-0.100000)"
fill="#000000" stroke="none">
<path d="M1342 6112 c-124 -25 -253 -102 -335 -202 -46 -55 -100 -165 -118
-240 -20 -83 -21 -4211 -1 -4320 40 -219 220 -407 442 -461 45 -11 440 -13
2155 -13 1155 0 2120 3 2145 7 120 17 224 71 321 167 80 80 122 152 155 265
17 56 18 189 18 2180 0 1717 -2 2130 -13 2175 -48 200 -198 362 -395 427 l-81
26 -2113 2 c-1730 0 -2124 -2 -2180 -13z m4194 -575 c4 -4 6 -2359 4 -3849 l0
-228 -2040 0 -2040 0 -1 68 c0 74 0 3941 1 3984 0 17 6 28 17 30 26 5 4054 0
4059 -5z"/>
<path d="M2830 4655 c-25 -6 -63 -23 -85 -37 -49 -31 -919 -909 -949 -958 -32
-52 -45 -103 -42 -174 4 -117 13 -129 506 -628 245 -248 461 -461 481 -473
195 -125 447 2 464 234 5 69 -17 150 -55 198 -12 16 -168 176 -347 356 l-325
329 326 327 c180 180 337 343 351 362 128 190 5 454 -220 472 -33 3 -80 -1
-105 -8z"/>
<path d="M4014 4655 c-62 -18 -98 -41 -138 -86 -98 -107 -110 -260 -31 -377
13 -18 170 -182 350 -363 l327 -329 -327 -329 c-179 -180 -336 -344 -349 -362
-39 -59 -54 -110 -51 -181 7 -233 264 -371 460 -246 22 14 243 231 490 481
482 488 493 501 503 610 7 70 -22 167 -65 216 -87 102 -902 915 -938 936 -67
39 -161 51 -231 30z"/>
</g>
</svg>
