<svg width="119" height="24" viewBox="0 0 119 24" fill="none" xmlns="http://www.w3.org/2000/svg">
<rect width="24" height="24" fill="white" fill-opacity="0.01"/>
<path d="M5 5V19H19V5H5ZM5 3H19C19.5304 3 20.0391 3.21071 20.4142 3.58579C20.7893 3.96086 21 4.46957 21 5V19C21 19.5304 20.7893 20.0391 20.4142 20.4142C20.0391 20.7893 19.5304 21 19 21H5C4.46957 21 3.96086 20.7893 3.58579 20.4142C3.21071 20.0391 3 19.5304 3 19V5C3 4.46957 3.21071 3.96086 3.58579 3.58579C3.96086 3.21071 4.46957 3 5 3Z" fill="url(#paint0_linear)"/>
<path fill-rule="evenodd" clip-rule="evenodd" d="M9.232 8.306L6.302 11.26C6.10863 11.4574 6.00033 11.7227 6.00033 11.999C6.00033 12.2753 6.10863 12.5406 6.302 12.738L9.232 15.694C9.32807 15.7904 9.44222 15.8669 9.56792 15.9191C9.69362 15.9713 9.82839 15.9982 9.9645 15.9982C10.1006 15.9982 10.2354 15.9713 10.3611 15.9191C10.4868 15.8669 10.6009 15.7904 10.697 15.694C10.8918 15.4974 11.0011 15.2318 11.0011 14.955C11.0011 14.6782 10.8918 14.4126 10.697 14.216L8.5 11.999L10.697 9.782C10.8917 9.58571 11.0009 9.32046 11.0009 9.044C11.0009 8.76754 10.8917 8.50228 10.697 8.306C10.6015 8.20887 10.4875 8.13177 10.3618 8.07923C10.2361 8.02668 10.1012 7.99975 9.965 8C9.698 8 9.435 8.101 9.232 8.306ZM13.304 8.305C13.1092 8.50163 12.9999 8.76721 12.9999 9.044C12.9999 9.32078 13.1092 9.58638 13.304 9.783L15.5 12L13.304 14.217C13.1095 14.4136 13.0004 14.679 13.0004 14.9555C13.0004 15.232 13.1095 15.4974 13.304 15.694C13.708 16.102 14.364 16.102 14.768 15.694L17.698 12.739C17.8918 12.5419 18.0005 12.2765 18.0005 12C18.0005 11.7235 17.8918 11.4581 17.698 11.261L14.768 8.305C14.6722 8.20837 14.5581 8.13167 14.4325 8.07933C14.3069 8.02699 14.1721 8.00004 14.036 8.00004C13.8999 8.00004 13.7651 8.02699 13.6395 8.07933C13.5139 8.13167 13.3998 8.20837 13.304 8.305Z" fill="url(#paint1_linear)"/>
<path d="M38.0488 17.1055H31.4863V4.9082H29.2988V19H38.0488V17.1055ZM43.7129 10.2402C45.1875 10.2402 46.1836 11.3438 46.2324 12.916H41.0957C41.2031 11.3633 42.2383 10.2402 43.7129 10.2402ZM46.2227 15.9824C45.9395 16.8809 45.0508 17.4863 43.8496 17.4863C42.1602 17.4863 41.0859 16.3047 41.0859 14.5176V14.3906H48.3418V13.668C48.3418 10.5527 46.5645 8.54102 43.7129 8.54102C40.8125 8.54102 38.957 10.6895 38.957 13.9121C38.957 17.1543 40.7832 19.1953 43.8008 19.1953C46.1543 19.1953 47.9316 17.8574 48.2246 15.9824H46.2227ZM53.5762 17.5059C52.4434 17.5059 51.7012 16.9199 51.7012 16.0215C51.7012 15.1426 52.4141 14.5859 53.6738 14.498L56.2031 14.3418V15.1523C56.2031 16.4902 55.0508 17.5059 53.5762 17.5059ZM52.9902 19.1758C54.3379 19.1758 55.6367 18.4531 56.2324 17.3105H56.2812V19H58.3027V11.9199C58.3027 9.85938 56.7109 8.54102 54.2207 8.54102C51.6816 8.54102 50.0996 9.9082 49.9824 11.7637H51.9746C52.1602 10.8457 52.9219 10.2598 54.1426 10.2598C55.4316 10.2598 56.2031 10.9434 56.2031 12.0859V12.877L53.3906 13.043C50.9492 13.1797 49.5723 14.2832 49.5723 16.0801C49.5723 17.9258 50.9785 19.1758 52.9902 19.1758ZM60.3535 19H62.4629V12.8477C62.4629 11.3926 63.3027 10.4844 64.6602 10.4844C65.0703 10.4844 65.4414 10.5332 65.6074 10.6016V8.63867C65.4512 8.60938 65.1875 8.56055 64.8848 8.56055C63.6738 8.56055 62.7559 9.27344 62.4141 10.4746H62.3652V8.72656H60.3535V19ZM66.916 19H69.0254V13.0137C69.0254 11.4219 69.9824 10.3672 71.4668 10.3672C72.9316 10.3672 73.6543 11.2168 73.6543 12.7598V19H75.7734V12.3496C75.7734 9.99609 74.4746 8.55078 72.209 8.55078C70.627 8.55078 69.5332 9.27344 68.9766 10.4453H68.9277V8.72656H66.916V19ZM77.6289 11.6367C77.6289 13.0723 78.5664 14.0391 80.4219 14.4883L82.2578 14.9375C83.332 15.2109 83.7227 15.5723 83.7227 16.2266C83.7227 17.0566 82.9414 17.584 81.6719 17.584C80.3828 17.584 79.6211 17.0371 79.4551 16.0508H77.3652C77.5312 17.9355 79.1426 19.1953 81.5742 19.1953C84.0938 19.1953 85.8418 17.9062 85.8418 16.0312C85.8418 14.5176 85.0605 13.7363 82.9902 13.2383L81.2617 12.8379C80.1973 12.5742 79.6895 12.1445 79.6895 11.5098C79.6895 10.6992 80.4512 10.1426 81.5938 10.1426C82.7754 10.1426 83.5273 10.7188 83.625 11.6465H85.6074C85.5391 9.82031 83.9375 8.54102 81.6523 8.54102C79.25 8.54102 77.6289 9.80078 77.6289 11.6367ZM87.5605 19H89.6699V13.0625C89.6699 11.4414 90.627 10.3672 92.1895 10.3672C93.6738 10.3672 94.4355 11.2754 94.4355 12.7891V19H96.5547V12.3789C96.5547 10.0547 95.207 8.55078 92.9512 8.55078C91.3887 8.55078 90.2656 9.24414 89.6992 10.4453H89.6504V4.9082H87.5605V19ZM102.893 10.2402C104.367 10.2402 105.363 11.3438 105.412 12.916H100.275C100.383 11.3633 101.418 10.2402 102.893 10.2402ZM105.402 15.9824C105.119 16.8809 104.23 17.4863 103.029 17.4863C101.34 17.4863 100.266 16.3047 100.266 14.5176V14.3906H107.521V13.668C107.521 10.5527 105.744 8.54102 102.893 8.54102C99.9922 8.54102 98.1367 10.6895 98.1367 13.9121C98.1367 17.1543 99.9629 19.1953 102.98 19.1953C105.334 19.1953 107.111 17.8574 107.404 15.9824H105.402ZM109.24 19H111.35V4.9082H109.24V19ZM113.596 19H115.705V4.9082H113.596V19Z" fill="#253858"/>
<defs>
<linearGradient id="paint0_linear" x1="20.8298" y1="23.2964" x2="6.41465" y2="19.161" gradientUnits="userSpaceOnUse">
<stop stop-color="#0052CC"/>
<stop offset="0.9182" stop-color="#2380FB"/>
<stop offset="1" stop-color="#2684FF"/>
</linearGradient>
<linearGradient id="paint1_linear" x1="20.8298" y1="23.2964" x2="6.41465" y2="19.161" gradientUnits="userSpaceOnUse">
<stop stop-color="#0052CC"/>
<stop offset="0.9182" stop-color="#2380FB"/>
<stop offset="1" stop-color="#2684FF"/>
</linearGradient>
</defs>
</svg>
